<mxfile host="app.diagrams.net" modified="2023-12-02T11:37:15.945Z" agent="Mozilla/5.0 (Windows NT 10.0; Win64; x64) AppleWebKit/537.36 (KHTML, like Gecko) Chrome/119.0.0.0 Safari/537.36" version="22.1.5" etag="CYeBflweps-aVhVXMBl7" type="github">
  <diagram name="Pagina-1" id="kXx2UTYAI2pcR2kXlayg">
    <mxGraphModel>
      <root>
        <mxCell id="0" />
        <mxCell id="1" parent="0" />
      </root>
    </mxGraphModel>
  </diagram>
</mxfile>
